# xmcd
#
# Track frame offsets:
#	150
#	16400
#	34814
#	58066
#	77449
#	111161
#	128543
#	150064
#	168949
#	196684
#	231215
#
# Disc length: 3173 seconds
#
# Revision: 19
# Processed by: cddbd v1.5.2PL0 Copyright (c) Steve Scherf et al.
# Submitted via: Jack! The Knife 20 Magnifico
#
DISCID=740c630b
DTITLE=Rage - 10 Years In Rage
DYEAR=1994
DGENRE=Metal
TTITLE0=Vertigo
TTITLE1=She Killed And Smiled
TTITLE2=Destination Day
TTITLE3=Take My Blood
TTITLE4=No Sign Of Life
TTITLE5=Submission
TTITLE6=The Unknown
TTITLE7=Dangerous Heritage
TTITLE8=Prayers Of Steel '94
TTITLE9=The Blow In A Row
TTITLE10=Brainsucker
EXTD=Sven Conquest
EXTT0=Peter "Peavy" Wagner
EXTT1=Peter "Peavy" Wagner
EXTT2=Peter "Peavy" Wagner
EXTT3=C. Efthimiadis, S. Efthimiadis, Wagner
EXTT4=Peter "Peavy" Wagner
EXTT5=Peter "Peavy" Wagner
EXTT6=S. Efthimiadis, Wagner
EXTT7=C. Efthimiadis, S. Efthimiadis, Wagner
EXTT8=Peter "Peavy" Wagner
EXTT9=Peter "Peavy" Wagner
EXTT10=Peter "Peavy" Wagner
PLAYORDER=
